<svg xmlns="http://www.w3.org/2000/svg" fill="none" viewBox="0 0 512 512"><g clip-path="url(#a)"><path fill="#000" fill-rule="evenodd" d="M155.405 169.3a8.38 8.38 0 0 0-5.931-2.443l-21.848.044 223.423 222.642a8.38 8.38 0 0 0 5.931 2.444l21.848-.045zm91.346 234.278c1.059 1.055.312 2.864-1.182 2.864H75.806c-41.7 0-75.483 33.841-75.411 75.541l.022 13.288c.016 9.25 7.525 16.739 16.776 16.729l422.13-.442c40.199-.042 72.746-32.678 72.677-72.878a79.08 79.08 0 0 0-23.276-55.896L262.58 157.561h187.252c34.286 0 62.064-27.825 62.005-62.111l-.046-26.718c-.015-9.25-7.524-16.739-16.775-16.73l-422.128.442C32.688 52.487.14 85.125.21 125.326a79.08 79.08 0 0 0 23.277 55.897z" clip-rule="evenodd"/><path fill="#777" d="m346.252 300.102-4.994 54.446 37.746 37.667 4.97-54.47 54.459-5.084-36.906-36.83zm-70.196-70.143-4.994 54.446 37.745 37.667 4.97-54.471 54.46-5.084-36.907-36.829zm-69.584-69.438-4.994 54.446 37.746 37.666 4.97-54.47 54.459-5.084-36.907-36.829zm-46.009 98.598 4.994-54.446-37.745-37.666-4.97 54.47-54.46 5.084 36.907 36.829zm70.77 70.622 4.994-54.446-37.745-37.666-4.97 54.47-54.46 5.084 36.907 36.829zm70.77 70.622 4.994-54.446-37.745-37.667-4.97 54.47-54.46 5.085 36.907 36.829z"/></g><defs><clipPath id="a"><path fill="#fff" d="M0 0h512v512H0z"/></clipPath></defs></svg>