<?xml version="1.0" encoding="UTF-8" standalone="no"?>
<svg
   version="1.1"
   id="svg2"
   xml:space="preserve"
   width="873.21332"
   height="199.27333"
   viewBox="0 0 873.21332 199.27333"
   xmlns="http://www.w3.org/2000/svg"
   xmlns:svg="http://www.w3.org/2000/svg"
   xmlns:rdf="http://www.w3.org/1999/02/22-rdf-syntax-ns#"
   xmlns:cc="http://creativecommons.org/ns#"
   xmlns:dc="http://purl.org/dc/elements/1.1/"><metadata
     id="metadata8"><rdf:RDF><cc:Work
         rdf:about=""><dc:format>image/svg+xml</dc:format><dc:type
           rdf:resource="http://purl.org/dc/dcmitype/StillImage" /></cc:Work></rdf:RDF></metadata><defs
     id="defs6" /><g
     id="g10"
     transform="matrix(1.3333333,0,0,-1.3333333,336.96999,536.24332)"><g
       id="g12"
       transform="matrix(0,-0.1,0.1,0,-252.7275,402.1825)"
       style="fill:#c60800;fill-opacity:1"><path
         d="M 1494.55,433.902 V 0 H 0 v 424.262 c 0,239.129 194.773,433.902 433.902,433.902 h 19.286 c 104.136,0 239.128,-61.711 283.484,-167.777 42.426,107.996 185.133,177.418 295.058,177.418 h 28.92 c 239.13,0 433.9,-194.774 433.9,-433.903 z M 264.199,424.262 V 289.27 h 345.196 v 134.992 c 0,79.066 -67.497,150.418 -171.633,150.418 -104.141,0 -173.563,-71.352 -173.563,-150.418 z m 611.321,9.64 V 289.27 h 354.84 v 144.632 c 0,79.067 -69.43,150.422 -183.21,150.422 -104.134,0 -171.63,-71.355 -171.63,-150.422"
         style="fill:#c60800;fill-opacity:1;fill-rule:nonzero;stroke:none"
         id="path14" /><path
         d="m 1494.55,2313.68 c 0,-239.13 -194.77,-433.91 -433.9,-433.91 H 433.902 C 194.773,1879.77 0,2074.55 0,2313.68 v 433.9 h 283.484 v -433.9 c 0,-79.07 71.352,-144.64 150.418,-144.64 h 169.707 v 404.98 h 277.696 v -404.98 h 179.345 c 79.07,0 150.42,65.57 150.42,144.64 v 433.9 h 283.48 z M 1321,2641.52 v -327.84 c 0,-144.64 -115.71,-260.34 -260.35,-260.34 H 771.383 v 414.61 H 713.531 V 2053.34 H 433.902 c -144.632,0 -260.339,115.7 -260.339,260.34 v 327.84 h -57.856 v -327.84 c 0,-175.49 142.707,-318.2 318.195,-318.2 h 626.748 c 175.49,0 318.2,142.71 318.2,318.2 v 327.84 H 1321"
         style="fill:#c60800;fill-opacity:1;fill-rule:nonzero;stroke:none"
         id="path16" /><path
         d="M 1494.55,3406.71 H 433.902 c -79.066,0 -150.418,-65.57 -150.418,-144.64 V 3117.44 H 1494.55 V 2828.17 H 0 v 433.9 c 0,239.13 194.773,433.91 433.902,433.91 H 1494.55 Z M 433.902,3580.27 c -175.488,0 -318.195,-142.71 -318.195,-318.2 V 2943.88 H 1388.49 v 57.85 H 173.563 v 260.34 c 0,144.64 115.707,260.34 260.339,260.34 h 954.588 v 57.86 H 433.902"
         style="fill:#c60800;fill-opacity:1;fill-rule:nonzero;stroke:none"
         id="path18" /><path
         d="m 1494.55,4218.29 v -433.9 H 0 v 433.9 c 0,239.13 194.773,433.91 433.902,433.91 h 626.748 c 239.13,0 433.9,-194.78 433.9,-433.91 z m -1060.648,318.2 c -175.488,0 -318.195,-142.7 -318.195,-318.2 V 3900.1 H 1378.85 v 318.19 c 0,175.5 -142.71,318.2 -318.2,318.2 z M 1321,4218.29 V 3957.95 H 173.563 v 260.34 c 0,144.64 115.707,260.35 260.339,260.35 h 626.748 c 144.64,0 260.35,-115.71 260.35,-260.35 z m -887.098,144.64 c -79.066,0 -150.418,-65.57 -150.418,-144.64 v -144.63 h 927.586 v 144.63 c 0,79.07 -71.35,144.64 -150.42,144.64 H 433.902"
         style="fill:#c60800;fill-opacity:1;fill-rule:nonzero;stroke:none"
         id="path20" /><path
         d="m 1494.55,5166.8 c 0,-239.13 -194.77,-433.9 -433.9,-433.9 H 433.902 C 194.773,4732.9 0,4927.67 0,5166.8 v 433.9 h 283.484 v -433.9 c 0,-79.07 71.352,-144.64 150.418,-144.64 h 169.707 v 404.98 h 277.696 v -404.98 h 179.345 c 79.07,0 150.42,65.57 150.42,144.64 v 433.9 h 283.48 z M 1321,5494.64 V 5166.8 c 0,-144.64 -115.71,-260.34 -260.35,-260.34 H 771.383 v 414.62 H 713.531 V 4906.46 H 433.902 c -144.632,0 -260.339,115.7 -260.339,260.34 v 327.84 H 115.707 V 5166.8 c 0,-175.49 142.707,-318.19 318.195,-318.19 h 626.748 c 175.49,0 318.2,142.7 318.2,318.19 v 327.84 H 1321"
         style="fill:#c60800;fill-opacity:1;fill-rule:nonzero;stroke:none"
         id="path22" /><path
         d="m 1494.55,6259.83 h -404.97 c -79.07,0 -150.42,-65.56 -150.42,-144.63 v -144.64 h 555.39 V 5681.29 H 0 v 424.26 c 0,239.13 194.773,433.91 433.902,433.91 h 77.141 c 104.137,0 225.629,-42.43 283.48,-127.28 63.641,94.5 185.133,136.92 295.057,136.92 h 404.97 z m -404.97,173.56 c -127.279,0 -244.916,-79.06 -291.197,-190.91 -52.07,107.99 -163.918,181.27 -287.34,181.27 h -77.141 c -175.488,0 -318.195,-142.71 -318.195,-318.2 V 5797 H 1388.49 v 57.86 H 829.238 v 260.34 c 0,144.63 115.707,260.34 260.342,260.34 h 298.91 v 57.85 z M 771.383,6105.55 v -250.69 h -597.82 v 250.69 c 0,144.64 115.707,260.35 260.339,260.35 h 77.141 c 144.633,0 260.34,-115.71 260.34,-260.35 z m -337.481,144.64 c -79.066,0 -150.418,-65.57 -150.418,-144.64 v -134.99 h 377.977 v 134.99 c 0,79.07 -71.352,144.64 -150.418,144.64 h -77.141"
         style="fill:#c60800;fill-opacity:1;fill-rule:nonzero;stroke:none"
         id="path24" /><path
         d="m 1494.55,1517.34 h -414.61 c -86.784,0 -142.71,-65.57 -142.71,-144.64 v -144.63 h 557.32 V 938.801 H 0 v 424.259 c 0,239.13 194.773,433.9 433.902,433.9 h 77.141 c 104.137,0 223.699,-38.57 283.48,-156.2 46.286,109.92 165.848,165.85 295.057,165.85 h 404.97 z M 439.688,1507.7 c -98.352,0 -160.059,-65.57 -160.059,-144.64 v -134.99 h 385.687 v 134.99 c 0,79.07 -50.136,144.64 -144.632,144.64 h -80.996"
         style="fill:#c60800;fill-opacity:1;fill-rule:nonzero;stroke:none"
         id="path26" /><path
         d="m 1494.55,4218.29 v -433.9 H 0 v 433.9 c 0,239.13 194.773,433.91 433.902,433.91 h 626.748 c 239.13,0 433.9,-194.78 433.9,-433.91 z m -1060.648,318.2 c -175.488,0 -318.195,-142.71 -318.195,-318.2 V 3900.1 H 1378.85 v 318.19 c 0,175.49 -142.71,318.2 -318.2,318.2 z m 887.088,-318.2 V 3957.95 H 173.563 v 260.34 c 0,144.64 115.707,260.35 260.339,260.35 h 626.748 c 144.64,0 260.34,-115.71 260.34,-260.35 z m -887.088,144.64 c -79.066,0 -150.418,-65.57 -150.418,-144.64 v -144.63 h 927.586 v 144.63 c 0,79.07 -71.35,144.64 -150.42,144.64 H 433.902"
         style="fill:#c60800;fill-opacity:1;fill-rule:nonzero;stroke:none"
         id="path28" /><path
         d="m 1494.55,5166.8 c 0,-239.13 -194.77,-433.91 -433.9,-433.91 H 433.902 C 194.773,4732.89 0,4927.67 0,5166.8 v 433.9 h 283.484 v -433.9 c 0,-79.07 71.352,-144.63 150.418,-144.63 h 169.707 v 404.97 h 277.696 v -404.97 h 179.345 c 79.07,0 150.42,65.56 150.42,144.63 v 433.9 h 283.48 z m -173.56,327.84 V 5166.8 c 0,-144.63 -115.7,-260.34 -260.34,-260.34 H 771.383 v 414.62 H 713.531 V 4906.46 H 433.902 c -144.632,0 -260.339,115.71 -260.339,260.34 v 327.84 H 115.707 V 5166.8 c 0,-175.49 142.707,-318.2 318.195,-318.2 h 626.748 c 175.49,0 318.2,142.71 318.2,318.2 v 327.84 h -57.86"
         style="fill:#c60800;fill-opacity:1;fill-rule:nonzero;stroke:none"
         id="path30" /><path
         d="m 1494.55,6259.83 h -404.97 c -79.07,0 -150.42,-65.56 -150.42,-144.63 v -144.64 h 555.39 V 5681.29 H 0 v 424.26 c 0,239.13 194.773,433.91 433.902,433.91 h 77.137 c 104.141,0 225.633,-42.43 283.484,-127.28 63.641,94.5 185.133,136.92 295.057,136.92 h 404.97 z m -404.97,173.56 c -127.279,0 -244.916,-79.06 -291.197,-190.91 -52.07,107.99 -163.918,181.27 -287.344,181.27 h -77.137 c -175.488,0 -318.195,-142.7 -318.195,-318.2 V 5797 H 1388.49 v 57.86 H 829.238 v 260.34 c 0,144.63 115.707,260.34 260.342,260.34 h 298.91 v 57.85 z M 771.383,6105.55 v -250.69 h -597.82 v 250.69 c 0,144.64 115.707,260.35 260.339,260.35 h 77.137 c 144.637,0 260.344,-115.71 260.344,-260.35 z m -337.481,144.64 c -79.066,0 -150.418,-65.57 -150.418,-144.64 v -134.99 h 377.977 v 134.99 c 0,79.07 -71.352,144.64 -150.422,144.64 h -77.137"
         style="fill:#c60800;fill-opacity:1;fill-rule:nonzero;stroke:none"
         id="path32" /></g></g></svg>
