<?xml version="1.0" encoding="UTF-8"?>
<svg width="170px" height="32px" viewBox="0 0 170 32" version="1.1" xmlns="http://www.w3.org/2000/svg" xmlns:xlink="http://www.w3.org/1999/xlink">
    <!-- Generator: Sketch 47.1 (45422) - http://www.bohemiancoding.com/sketch -->
    <title>PlayCanvas-Logo White@3x</title>
    <desc>Created with Sketch.</desc>
    <defs></defs>
    <g id="Symbols" stroke="none" stroke-width="1" fill="none" fill-rule="evenodd">
        <g id="navigation/main_menu-desktop" transform="translate(-120.000000, -3.000000)">
            <g id="logo/white" transform="translate(120.000000, 3.000000)">
                <g id="PlayCanvas-Logo">
                    <polygon id="Fill-1" fill="#E05F2C" points="0 32 31.746988 32 31.746988 0 0 0"></polygon>
                    <polyline id="Fill-2" fill="#FFFFFE" points="20.7013769 11.5011089 18.2874355 12.9032258 18.2874355 10.1013825 20.7013769 11.5011089"></polyline>
                    <polyline id="Fill-3" fill="#FFFFFE" points="15.873494 8.70046083 15.873494 11.5023041 13.4595525 10.1020136 15.873494 8.70046083"></polyline>
                    <polyline id="Fill-4" fill="#FFFFFE" points="15.873494 11.5023041 15.873494 14.3041475 13.4595525 12.9045208 15.873494 11.5023041"></polyline>
                    <polyline id="Fill-5" fill="#FFFFFE" points="13.3864028 15.7783371 10.9733199 17.1797235 10.9724613 17.1797235 10.9724613 14.3778802 10.9733199 14.3778802 13.3864028 15.7783371"></polyline>
                    <polyline id="Fill-6" fill="#FFFFFE" points="18.2874355 10.1013825 18.2874355 12.9032258 15.873494 11.5011089 18.2874355 10.1013825"></polyline>
                    <polyline id="Fill-7" fill="#FFFFFE" points="15.873494 8.70102501 13.4595525 10.1013825 13.4595525 7.29953917 15.873494 8.70102501"></polyline>
                    <polyline id="Fill-8" fill="#FFFFFE" points="18.2874355 12.9045208 15.873494 14.3041475 15.873494 11.5023041 18.2874355 12.9045208"></polyline>
                    <polyline id="Fill-9" fill="#FFFFFE" points="18.2874355 10.1020136 15.873494 11.5023041 15.873494 8.70046083 18.2874355 10.1020136"></polyline>
                    <polyline id="Fill-10" fill="#FFFFFE" points="13.3864028 12.9032258 13.3864028 15.7050691 10.9724613 14.3036159 13.3864028 12.9032258"></polyline>
                    <polyline id="Fill-11" fill="#FFFFFE" points="13.3864028 7.29953917 13.3864028 10.1013825 10.9724613 8.70102501 13.3864028 7.29953917"></polyline>
                    <polyline id="Fill-12" fill="#FFFFFE" points="13.3864028 7.29864291 10.9733199 8.70046083 10.9724613 8.70046083 10.9724613 5.89861751 10.9733199 5.89861751 13.3864028 7.29864291"></polyline>
                    <polyline id="Fill-13" fill="#FFFFFE" points="15.873494 14.3036159 13.4595525 15.7050691 13.4595525 12.9032258 15.873494 14.3036159"></polyline>
                    <polyline id="Fill-14" fill="#CE5B2F" points="13.3864028 22.7834101 10.9724613 21.3814591 13.3864028 19.9815668 13.3864028 22.7834101"></polyline>
                    <polyline id="Fill-15" fill="#CE5B2F" points="15.873494 21.3824885 15.873494 18.5806452 18.2874355 19.9824967 15.873494 21.3824885"></polyline>
                    <polyline id="Fill-16" fill="#CE5B2F" points="15.873494 24.1843318 15.873494 21.3824885 18.2874355 22.7846722 15.873494 24.1843318"></polyline>
                    <polyline id="Fill-17" fill="#CE5B2F" points="20.7013769 26.9861751 20.6999242 26.9861751 18.2874355 25.5850875 20.6999242 24.1843318 20.7013769 24.1843318 20.7013769 26.9861751"></polyline>
                    <polyline id="Fill-18" fill="#CE5B2F" points="13.4595525 22.7834101 13.4595525 19.9815668 15.873494 21.3814591 13.4595525 22.7834101"></polyline>
                    <polyline id="Fill-19" fill="#CE5B2F" points="18.2874355 19.9815668 18.2874355 19.9815668 15.873494 18.580612 18.2874355 17.1797235 18.2874355 19.9815668"></polyline>
                    <polyline id="Fill-20" fill="#CE5B2F" points="15.873494 24.1843318 13.4595525 22.7846722 15.873494 21.3824885 15.873494 24.1843318"></polyline>
                    <polyline id="Fill-21" fill="#CE5B2F" points="15.873494 21.3824885 13.4595525 19.9824967 15.873494 18.5806452 15.873494 21.3824885"></polyline>
                    <polyline id="Fill-22" fill="#CE5B2F" points="18.2874355 25.5852535 18.2874355 22.7834101 20.7013769 24.1832357 18.2874355 25.5852535"></polyline>
                    <polyline id="Fill-23" fill="#CE5B2F" points="18.2874355 19.9815668 18.2874355 17.1797235 20.7013769 18.580612 18.2874355 19.9815668"></polyline>
                    <polyline id="Fill-24" fill="#CE5B2F" points="20.7013769 18.5806452 20.6999242 18.5806452 18.2874355 17.1792255 20.6999242 15.7788018 20.7013769 15.7788018 20.7013769 18.5806452"></polyline>
                    <polyline id="Fill-25" fill="#CE5B2F" points="18.2874355 25.5852535 15.873494 24.1832357 18.2874355 22.7834101 18.2874355 25.5852535"></polyline>
                    <polyline id="Fill-26" fill="#FFFFFE" points="20.6999127 14.4516129 10.9724613 20.091932 20.7013769 25.7327189 20.6999127 22.9113897 15.8900302 20.091932 20.7013769 17.2722069 20.6999127 14.4516129"></polyline>
                    <polyline id="Fill-27" fill="#CE5B2F" points="18.2874355 14.2304147 18.2874355 12.9180696 19.5760243 12.1658986 20.7013769 12.8219711 18.2874355 14.2304147"></polyline>
                    <polyline id="Fill-28" fill="#E5E5E0" points="18.2874355 12.9032258 18.2874355 11.4285714 19.6041308 12.1654732 18.2874355 12.9032258"></polyline>
                    <polyline id="Fill-29" fill="#CE5B2F" points="15.873494 12.8294931 15.873494 11.5227499 14.7481458 12.1765532 13.4595525 11.4288371 14.5850988 10.7754987 15.873494 11.5227499 15.873494 10.0276498 15.873494 12.8294931"></polyline>
                    <polyline id="Fill-30" fill="#E5E5E0" points="15.873494 11.5023041 14.5567986 10.7652717 15.873494 10.0276498 15.873494 11.5023041"></polyline>
                    <polyline id="Fill-31" fill="#E5E5E0" points="15.8003442 12.8294931 14.7030981 12.1663371 15.8003442 11.5023041 15.8003442 12.8294931"></polyline>
                    <polyline id="Fill-32" fill="#CE5B2F" points="15.873494 15.6313364 14.723275 14.9785894 15.873494 14.3252444 14.5567986 13.5779002 15.873494 14.3252444 15.873494 12.8294931 15.873494 15.6313364"></polyline>
                    <polyline id="Fill-33" fill="#E5E5E0" points="15.873494 14.3041475 14.5567986 13.5673442 15.873494 12.8294931 15.873494 14.3041475"></polyline>
                    <polyline id="Fill-34" fill="#E5E5E0" points="14.7478817 14.9677419 13.4595525 14.2205394 14.5849667 13.5668203 15.873494 14.3142886 14.7478817 14.9677419"></polyline>
                    <polyline id="Fill-35" fill="#CE5B2F" points="10.9733199 18.5069124 10.9724613 18.5069124 10.9724613 17.1942394 10.9733199 17.1942394 12.2617638 16.4423963 13.3864028 17.0984993 10.9733199 18.5069124"></polyline>
                    <polyline id="Fill-36" fill="#E5E5E0" points="10.9733382 17.1059908 10.9724613 17.1059908 10.9724613 15.6313364 10.9733382 15.6313364 12.2891566 16.3686309 10.9733382 17.1059908"></polyline>
                    <polyline id="Fill-37" fill="#CE5B2F" points="18.2874355 14.2304147 17.1374967 13.5738084 18.2874355 12.9180696 16.9707401 12.1658986 18.2874355 12.9180696 18.2874355 14.2304147"></polyline>
                    <polyline id="Fill-38" fill="#E5E5E0" points="18.2874355 12.9032258 16.9707401 12.1654732 18.2874355 11.4285714 18.2874355 12.9032258"></polyline>
                    <polyline id="Fill-39" fill="#E5E5E0" points="17.1620619 13.5668203 15.873494 12.8187147 16.9988675 12.1658986 18.2874355 12.9143362 17.1620619 13.5668203"></polyline>
                    <polyline id="Fill-40" fill="#CE5B2F" points="13.4595525 11.4285714 13.4595525 10.1013825 14.5567986 10.7646733 13.4595525 11.4285714"></polyline>
                    <polyline id="Fill-41" fill="#E5E5E0" points="14.5850988 10.764977 13.4595525 10.1123292 14.7487402 9.3640553 15.873494 10.0172344 14.5850988 10.764977"></polyline>
                    <polyline id="Fill-42" fill="#E5E5E0" points="13.4595525 10.1013825 13.4595525 8.62672811 14.7762478 9.36425155 13.4595525 10.1013825"></polyline>
                    <polyline id="Fill-43" fill="#CE5B2F" points="15.873494 15.6313364 15.873494 14.318197 17.1620619 13.5668203 18.2874355 14.2239577 15.873494 15.6313364"></polyline>
                    <polyline id="Fill-44" fill="#E5E5E0" points="15.873494 14.3041475 15.873494 12.8294931 17.1901893 13.5673442 15.873494 14.3041475"></polyline>
                    <polyline id="Fill-45" fill="#E5E5E0" points="16.9988675 12.1658986 15.873494 11.5121573 17.1619297 10.764977 18.2874355 11.4182534 16.9988675 12.1658986"></polyline>
                    <polyline id="Fill-46" fill="#E5E5E0" points="15.873494 12.8294931 15.873494 11.5023041 16.9707401 12.1663371 15.873494 12.8294931"></polyline>
                    <polyline id="Fill-47" fill="#E5E5E0" points="15.873494 11.5023041 15.873494 10.0276498 17.1901893 10.7652717 15.873494 11.5023041"></polyline>
                    <polyline id="Fill-48" fill="#CE5B2F" points="13.3864028 17.0322581 13.3864028 17.0322581 12.2891566 16.3789331 13.3864028 15.7254088 13.3864028 14.2304147 13.3864028 17.0322581"></polyline>
                    <polyline id="Fill-49" fill="#E5E5E0" points="12.2613636 16.3686636 10.9724613 15.6203188 12.0980951 14.9677419 13.3864028 15.7153562 12.2613636 16.3686636"></polyline>
                    <polyline id="Fill-50" fill="#E5E5E0" points="13.4595525 15.7050691 13.4595525 15.7050691 12.1428571 14.9673815 13.4595525 14.2304147 13.4595525 15.7050691"></polyline>
                    <polyline id="Fill-51" fill="#CE5B2F" points="13.3864028 11.4285714 10.9724613 10.0205251 12.0972362 9.3640553 13.3864028 10.116099 13.3864028 11.4285714"></polyline>
                    <polyline id="Fill-52" fill="#E5E5E0" points="13.4595525 10.1013825 12.1428571 9.36425155 13.4595525 8.62672811 13.4595525 10.1013825"></polyline>
                    <polyline id="Fill-53" fill="#CE5B2F" points="10.9732986 10.0276498 10.9724613 10.0276498 10.9724613 8.70046083 10.9732986 8.70046083 12.0697074 9.36385284 10.9732986 10.0276498"></polyline>
                    <polyline id="Fill-54" fill="#E5E5E0" points="12.0972362 9.3640553 10.9724613 8.71155305 12.2614957 7.96313364 13.3864028 8.61570227 12.0972362 9.3640553"></polyline>
                    <polyline id="Fill-55" fill="#E5E5E0" points="10.9733381 8.62672811 10.9724613 8.62672811 10.9724613 7.15207373 10.9733381 7.15207373 12.2891566 7.88910653 10.9733381 8.62672811"></polyline>
                    <polyline id="Fill-56" fill="#CE5B2F" points="13.4595525 17.0322581 13.4595525 15.7191729 14.7478817 14.9677419 15.873494 15.6236504 13.4595525 17.0322581"></polyline>
                    <polyline id="Fill-57" fill="#E5E5E0" points="13.4595525 15.7050691 13.4595525 14.2304147 14.7762478 14.9673815 13.4595525 15.7050691"></polyline>
                    <polyline id="Fill-58" fill="#FFFFFE" points="10.9733265 5.89861751 20.7013769 11.5388697 10.9724613 17.1797235 10.9733265 14.3590627 15.783209 11.5388697 10.9724613 8.71961258 10.9733265 5.89861751"></polyline>
                    <path d="M53.761316,13.4588237 C53.761316,12.1145801 52.7650349,11.2324453 51.3951151,11.2324453 L48.0739571,11.2324453 L48.0739571,15.6852021 L51.3951151,15.6852021 C52.7650349,15.6852021 53.761316,14.8030003 53.761316,13.4588237 Z M45.6454389,23.078341 L45.6454389,9.06912442 L51.7271647,9.06912442 C54.6330952,9.06912442 56.2521515,11.0854899 56.2521515,13.4588237 C56.2521515,15.8322245 54.6123669,17.848523 51.7271647,17.848523 L48.0739571,17.848523 L48.0739571,23.078341 L45.6454389,23.078341 L45.6454389,23.078341 Z" id="Fill-59" fill="#FFFFFF"></path>
                    <polyline id="Fill-60" fill="#FFFFFF" points="58.080895 23.078341 58.080895 9.06912442 60.5173308 9.06912442 60.5173308 20.9150201 66.6394148 20.9150201 66.6394148 23.078341 58.080895 23.078341"></polyline>
                    <path d="M74.1372633,11.5475317 L71.6343509,18.2265999 L76.6395105,18.2265999 L74.1372633,11.5475317 Z M78.3493683,23.078341 L77.3274455,20.3899208 L70.9464159,20.3899208 L69.9244931,23.078341 L67.151463,23.078341 L72.6150242,9.06912442 L75.6595025,9.06912442 L81.1230637,23.078341 L78.3493683,23.078341 L78.3493683,23.078341 Z" id="Fill-61" fill="#FFFFFF"></path>
                    <polyline id="Fill-62" fill="#FFFFFF" points="85.0389602 23.078341 85.0389602 17.2604331 79.6600688 9.06912442 82.4429395 9.06912442 86.2640858 15.0760707 90.0441518 9.06912442 92.8270224 9.06912442 87.4686713 17.2604331 87.4686713 23.078341 85.0389602 23.078341"></polyline>
                    <path d="M93.8511188,16.0737661 C93.8511188,11.7801201 96.9462554,8.84792627 100.872506,8.84792627 C103.074228,8.84792627 104.736456,9.8322961 105.920826,11.3193755 L104.923357,11.9686947 C104.051152,10.7538523 102.534733,9.93707458 100.872506,9.93707458 C97.6110139,9.93707458 95.0977894,12.4294394 95.0977894,16.0737661 C95.0977894,19.6761948 97.6110139,22.2104577 100.872506,22.2104577 C102.534733,22.2104577 104.051152,21.39368 104.923357,20.1788376 L105.920826,20.8071744 C104.694701,22.3361518 103.074228,23.2995392 100.872506,23.2995392 C96.9462554,23.2995392 93.8511188,20.3673453 93.8511188,16.0737661" id="Fill-63" fill="#FFFFFF"></path>
                    <path d="M113.152332,10.3503106 L109.876325,18.5416193 L116.448976,18.5416193 L113.152332,10.3503106 Z M118.222454,23.078341 L116.845745,19.633834 L109.480222,19.633834 L108.102848,23.078341 L106.725473,23.078341 L112.422037,9.06912442 L113.903264,9.06912442 L119.599828,23.078341 L118.222454,23.078341 L118.222454,23.078341 Z" id="Fill-64" fill="#FFFFFF"></path>
                    <polyline id="Fill-65" fill="#FFFFFF" points="131.379283 23.078341 122.617918 11.0434739 122.617918 23.078341 121.428571 23.078341 121.428571 9.06912442 122.63855 9.06912442 131.358651 20.9360616 131.358651 9.06912442 132.547332 9.06912442 132.547332 23.078341 131.379283 23.078341"></polyline>
                    <polyline id="Fill-66" fill="#FFFFFF" points="139.99949 23.078341 134.302926 9.06912442 135.6803 9.06912442 140.729785 21.7341644 145.800572 9.06912442 147.177281 9.06912442 141.481382 23.078341 139.99949 23.078341"></polyline>
                    <path d="M152.872308,10.3503106 L149.596798,18.5416193 L156.169789,18.5416193 L152.872308,10.3503106 Z M157.943358,23.078341 L156.565913,19.633834 L149.200008,19.633834 L147.822563,23.078341 L146.445783,23.078341 L152.142642,9.06912442 L153.623945,9.06912442 L159.320138,23.078341 L157.943358,23.078341 L157.943358,23.078341 Z" id="Fill-67" fill="#FFFFFF"></path>
                    <path d="M159.978485,21.0794113 L160.749576,20.1788376 C161.645636,21.2260878 163.10406,22.2104577 165.08297,22.2104577 C167.937334,22.2104577 168.750302,20.6186666 168.750302,19.4248735 C168.750302,15.3197352 160.41588,17.4561338 160.41588,12.5760491 C160.41588,10.2931076 162.457939,8.84792627 164.979272,8.84792627 C167.062545,8.84792627 168.604061,9.58097474 169.687575,10.8167327 L168.895878,11.6963909 C167.89612,10.4816153 166.478909,9.93707458 164.916787,9.93707458 C163.062182,9.93707458 161.666242,11.0052405 161.666242,12.5132354 C161.666242,16.0947486 170,14.1259421 170,19.3410774 C170,21.1422918 168.812787,23.2995392 165.062363,23.2995392 C162.770364,23.2995392 161.041393,22.377983 159.978485,21.0794113" id="Fill-68" fill="#FFFFFF"></path>
                </g>
            </g>
        </g>
    </g>
</svg>