<svg width="512" height="460" viewBox="0 0 512 460" fill="none" xmlns="http://www.w3.org/2000/svg">
<path fill-rule="evenodd" clip-rule="evenodd" d="M155.195 117.298C154.415 116.521 153.49 115.906 152.473 115.487C151.455 115.067 150.365 114.853 149.264 114.855L127.416 114.899L350.839 337.541C351.619 338.318 352.544 338.934 353.561 339.353C354.579 339.772 355.669 339.987 356.77 339.985L378.618 339.94L155.195 117.298ZM246.541 351.576C247.6 352.631 246.853 354.44 245.359 354.44H75.5961C33.8961 354.44 0.113113 388.281 0.185113 429.981L0.207113 443.269C0.223113 452.519 7.73211 460.008 16.9831 459.998L439.113 459.556C479.312 459.514 511.859 426.878 511.79 386.678C511.772 376.289 509.707 366.005 505.714 356.414C501.72 346.823 495.875 338.113 488.514 330.782L262.37 105.559H449.622C483.908 105.559 511.686 77.734 511.627 43.448L511.581 16.73C511.566 7.48001 504.057 -0.0089919 494.806 8.1034e-06L72.6781 0.442009C32.4781 0.485009 -0.0698873 33.123 0.000112699 73.324C0.0179656 83.7134 2.08288 93.9975 6.07685 103.589C10.0708 113.18 15.9156 121.89 23.2771 129.221L246.541 351.576Z" fill="black"/>
<path d="M346.042 248.1L341.048 302.546L378.794 340.213L383.764 285.743L438.223 280.659L401.317 243.829L346.042 248.1ZM275.846 177.957L270.852 232.403L308.597 270.07L313.567 215.599L368.027 210.515L331.12 173.686L275.846 177.957ZM206.262 108.519L201.268 162.965L239.014 200.631L243.984 146.161L298.443 141.077L261.536 104.248L206.262 108.519ZM160.253 207.117L165.247 152.671L127.502 115.005L122.532 169.475L68.0721 174.559L104.979 211.388L160.253 207.117ZM231.023 277.739L236.017 223.293L198.272 185.627L193.302 240.097L138.842 245.181L175.749 282.01L231.023 277.739ZM301.793 348.361L306.787 293.915L269.042 256.248L264.072 310.718L209.612 315.803L246.519 352.632L301.793 348.361Z" fill="#777777"/>
</svg>
